<svg width="95" height="41" viewBox="0 0 95 41" fill="none" xmlns="http://www.w3.org/2000/svg">
<path d="M47.8102 4.07611L47.8469 4.01705C48.3318 4.20619 48.9539 4.53989 49.5282 4.9522C49.9003 5.21923 50.23 5.50353 50.4753 5.77897C50.7295 6.06409 50.8501 6.29176 50.8824 6.44419L52.0971 6.3973C52.3627 4.39874 53.6672 3.00569 54.9809 2.08905C55.6333 1.63382 56.2708 1.3089 56.7457 1.098C56.8269 1.06194 56.9031 1.0293 56.9736 1L57.0008 1.06863C55.8117 2.00096 55.1416 2.99816 54.7703 4.011C54.3677 5.10947 54.3334 6.18831 54.3049 7.09306L54.2871 7.65488L54.845 7.72452C55.1604 7.76389 55.4747 7.81164 55.7876 7.86772C59.3208 8.50486 62.5961 10.145 65.2227 12.5924C67.8494 15.0398 69.7165 18.1913 70.6014 21.6707L70.7525 22.2651L71.3477 22.1173C71.7903 22.0074 72.2445 21.9511 72.7005 21.9497C73.413 21.9489 74.1192 22.0829 74.782 22.3445C76.1759 22.8952 77.2939 23.977 77.8902 25.352C78.4864 26.7271 78.512 28.2826 77.9614 29.6765C77.4106 31.0704 76.3288 32.1884 74.9538 32.7847C73.5788 33.3809 72.0232 33.4065 70.6294 32.8559L70.0589 32.6305L69.8304 33.1997C69.3872 34.3033 68.8394 35.3615 68.1946 36.3598L64.0343 33.5574C65.3045 31.69 66.0427 29.1953 66.1781 26.7247L66.1782 26.7244C66.3378 23.7779 65.631 20.7147 63.6113 18.8689L63.6036 18.8618L63.5957 18.855C61.5864 17.1397 59.4338 16.6434 57.4212 17.0294C55.5238 17.3933 53.8112 18.5285 52.4853 20.0347H52.3626C51.0399 18.5285 49.3306 17.3928 47.4339 17.0285C45.4218 16.6422 43.2678 17.1387 41.2524 18.8545L41.2443 18.8615L41.2364 18.8686C39.2141 20.7146 38.5096 23.7738 38.6692 26.7242L38.6694 26.7257C38.809 29.1953 39.5453 31.6899 40.8135 33.5571L36.6555 36.3593C36.0122 35.3612 35.4657 34.3033 35.024 33.2002L34.796 32.631L34.2254 32.8556C33.1331 33.2856 31.934 33.3651 30.7945 33.083C30.0738 32.9046 29.3955 32.586 28.798 32.1455C28.2006 31.7048 27.6957 31.151 27.3123 30.5153C26.9289 29.8797 26.6744 29.1747 26.5635 28.4407C26.4525 27.7066 26.4873 26.958 26.6657 26.2374C26.844 25.5168 27.1625 24.8384 27.6032 24.241C28.0437 23.6434 28.5977 23.1387 29.2333 22.7552C29.869 22.3718 30.5739 22.1174 31.3079 22.0064C32.0419 21.8955 32.7906 21.9302 33.5111 22.1085L34.1057 22.2557L34.2571 21.6622C35.1441 18.184 37.013 15.0342 39.6408 12.5887C42.2685 10.1432 45.5443 8.50516 49.0774 7.86996L49.6828 7.7611L49.5755 7.15532C49.3554 5.91317 48.7912 5.05453 48.2734 4.50553C48.11 4.33226 47.9515 4.19005 47.8102 4.07611ZM32.0463 25.1228H32.0444C31.3903 25.1228 30.763 25.3828 30.3006 25.8452C29.838 26.3078 29.5782 26.9351 29.5782 27.5891C29.5782 28.2432 29.838 28.8705 30.3006 29.333C30.756 29.7884 31.3712 30.0473 32.0145 30.0552C32.6398 30.1062 33.2898 29.7891 33.6951 29.4224L33.9319 29.2079L33.8933 28.8907C33.7787 27.9477 33.7138 27.0003 33.6986 26.0484L33.6936 25.7265L33.4265 25.5467C33.0186 25.2719 32.5382 25.1243 32.0463 25.1228ZM70.9629 28.8889L70.9244 29.2068L71.1623 29.421C71.6105 29.825 72.1911 30.0505 72.7941 30.0552C74.1686 30.1133 75.2932 28.9198 75.2759 27.5853C75.276 27.1388 75.1549 26.7008 74.9255 26.3178C74.695 25.9333 74.3641 25.6189 73.9682 25.4085C73.5724 25.1981 73.1266 25.0998 72.6789 25.124C72.2313 25.1481 71.7988 25.2939 71.4279 25.5457L71.1629 25.7257L71.1576 26.0459C71.142 26.9962 71.077 27.9452 70.9629 28.8889Z" fill="#1C1C1E" stroke="#1C1C1E" stroke-width="1.23355"/>
<path d="M88.2681 23.9737L88.5493 23.742L88.2684 23.5099L79.5953 16.3445V11.4048L94.5278 23.7415L79.5953 36.0591V31.119L88.2681 23.9737ZM6.73191 23.9737L15.4047 31.119V36.0591L0.47223 23.7415L15.4047 11.4048V16.3445L6.73159 23.5099L6.45067 23.742L6.73191 23.9737ZM16.4761 39.6883L25.475 4.70211L29.6747 5.41021L20.6758 40.3965L16.4761 39.6883Z" fill="#FF2D55" stroke="#1C1C1E" stroke-width="0.601266"/>
</svg>
