<svg width="95" height="55" viewBox="0 0 95 55" fill="none" xmlns="http://www.w3.org/2000/svg">
<path d="M47.8102 4.07611L47.8469 4.01705C48.3318 4.20619 48.9539 4.53989 49.5282 4.9522C49.9003 5.21923 50.23 5.50353 50.4753 5.77897C50.7295 6.06409 50.8501 6.29176 50.8824 6.44419L52.0971 6.3973C52.3627 4.39874 53.6672 3.00569 54.9809 2.08905C55.6333 1.63382 56.2708 1.3089 56.7457 1.098C56.8269 1.06194 56.9031 1.0293 56.9736 1L57.0008 1.06863C55.8117 2.00096 55.1416 2.99816 54.7703 4.011C54.3677 5.10947 54.3334 6.18831 54.3049 7.09306L54.2871 7.65488L54.845 7.72452C55.1604 7.76389 55.4747 7.81164 55.7876 7.86772C59.3208 8.50486 62.5961 10.145 65.2227 12.5924C67.8494 15.0398 69.7165 18.1913 70.6014 21.6707L70.7525 22.2651L71.3477 22.1173C71.7903 22.0074 72.2445 21.9511 72.7005 21.9497C73.413 21.9489 74.1192 22.0829 74.782 22.3445C76.1759 22.8952 77.2939 23.977 77.8902 25.352C78.4864 26.7271 78.512 28.2826 77.9614 29.6765C77.4106 31.0704 76.3288 32.1884 74.9538 32.7847C73.5788 33.3809 72.0232 33.4065 70.6294 32.8559L70.0589 32.6305L69.8304 33.1997C69.3872 34.3033 68.8394 35.3615 68.1946 36.3598L64.0343 33.5574C65.3045 31.69 66.0427 29.1953 66.1781 26.7247L66.1782 26.7244C66.3378 23.7779 65.631 20.7147 63.6113 18.8689L63.6036 18.8618L63.5957 18.855C61.5864 17.1397 59.4338 16.6434 57.4212 17.0294C55.5238 17.3933 53.8112 18.5285 52.4853 20.0347H52.3626C51.0399 18.5285 49.3306 17.3928 47.4339 17.0285C45.4218 16.6422 43.2678 17.1387 41.2524 18.8545L41.2443 18.8615L41.2364 18.8686C39.2141 20.7146 38.5096 23.7738 38.6692 26.7242L38.6694 26.7257C38.809 29.1953 39.5453 31.6899 40.8135 33.5571L36.6555 36.3593C36.0122 35.3612 35.4657 34.3033 35.024 33.2002L34.796 32.631L34.2254 32.8556C33.1331 33.2856 31.934 33.3651 30.7945 33.083C30.0738 32.9046 29.3955 32.586 28.798 32.1455C28.2006 31.7048 27.6957 31.151 27.3123 30.5153C26.9289 29.8797 26.6744 29.1747 26.5635 28.4407C26.4525 27.7066 26.4873 26.958 26.6657 26.2374C26.844 25.5168 27.1625 24.8384 27.6032 24.241C28.0437 23.6434 28.5977 23.1387 29.2333 22.7552C29.869 22.3718 30.5739 22.1174 31.3079 22.0064C32.0419 21.8955 32.7906 21.9302 33.5111 22.1085L34.1057 22.2557L34.2571 21.6622C35.1441 18.184 37.013 15.0342 39.6408 12.5887C42.2685 10.1432 45.5443 8.50516 49.0774 7.86996L49.6828 7.7611L49.5755 7.15532C49.3554 5.91317 48.7912 5.05453 48.2734 4.50553C48.11 4.33226 47.9515 4.19005 47.8102 4.07611ZM32.0463 25.1228H32.0444C31.3903 25.1228 30.763 25.3828 30.3006 25.8452C29.838 26.3078 29.5782 26.9351 29.5782 27.5891C29.5782 28.2432 29.838 28.8705 30.3006 29.333C30.756 29.7884 31.3712 30.0473 32.0145 30.0552C32.6398 30.1062 33.2898 29.7891 33.6951 29.4224L33.9319 29.2079L33.8933 28.8907C33.7787 27.9477 33.7138 27.0003 33.6986 26.0484L33.6936 25.7265L33.4265 25.5467C33.0186 25.2719 32.5382 25.1243 32.0463 25.1228ZM70.9629 28.8889L70.9244 29.2068L71.1623 29.421C71.6105 29.825 72.1911 30.0505 72.7941 30.0552C74.1686 30.1133 75.2932 28.9198 75.2759 27.5853C75.276 27.1388 75.1549 26.7008 74.9255 26.3178C74.695 25.9333 74.3641 25.6189 73.9682 25.4085C73.5724 25.1981 73.1266 25.0998 72.6789 25.124C72.2313 25.1481 71.7988 25.2939 71.4279 25.5457L71.1629 25.7257L71.1576 26.0459C71.142 26.9962 71.077 27.9452 70.9629 28.8889Z" fill="#1C1C1E" stroke="#1C1C1E" stroke-width="1.23355"/>
<path d="M88.2681 23.9737L88.5493 23.742L88.2684 23.5099L79.5953 16.3445V11.4048L94.5278 23.7415L79.5953 36.0591V31.119L88.2681 23.9737ZM6.73191 23.9737L15.4047 31.119V36.0591L0.47223 23.7415L15.4047 11.4048V16.3445L6.73159 23.5099L6.45067 23.742L6.73191 23.9737ZM16.4761 39.6883L25.475 4.70211L29.6747 5.41021L20.6758 40.3965L16.4761 39.6883Z" fill="#FF2D55" stroke="#1C1C1E" stroke-width="0.601266"/>
<path d="M4.05922 43.0069V47.1183H8.54117V48.4417H4.05922V52.6766H9.07054V54H2.45349V41.6835H9.07054V43.0069H4.05922ZM13.106 40.9424V54H11.5002V40.9424H13.106ZM28.318 41.7893V54H26.7123V44.8949L22.6538 54H21.5245L17.4484 44.8773V54H15.8427V41.7893H17.5719L22.0892 51.8825L26.6064 41.7893H28.318ZM35.2585 54.1588C34.3527 54.1588 33.5292 53.9529 32.7881 53.5412C32.0588 53.1295 31.4823 52.5472 31.0588 51.7943C30.6471 51.0297 30.4413 50.1474 30.4413 49.1475C30.4413 48.1594 30.653 47.2888 31.0765 46.536C31.5117 45.7713 32.0999 45.189 32.841 44.7891C33.5821 44.3773 34.4115 44.1715 35.329 44.1715C36.2466 44.1715 37.0759 44.3773 37.8171 44.7891C38.5582 45.189 39.1405 45.7655 39.564 46.5183C39.9992 47.2712 40.2168 48.1476 40.2168 49.1475C40.2168 50.1474 39.9933 51.0297 39.5463 51.7943C39.1111 52.5472 38.517 53.1295 37.7641 53.5412C37.0112 53.9529 36.176 54.1588 35.2585 54.1588ZM35.2585 52.7472C35.8349 52.7472 36.376 52.6119 36.8818 52.3413C37.3877 52.0708 37.7935 51.6649 38.0994 51.1238C38.417 50.5827 38.5758 49.9239 38.5758 49.1475C38.5758 48.3711 38.4229 47.7123 38.117 47.1712C37.8112 46.6301 37.4112 46.2301 36.9171 45.9713C36.4231 45.7008 35.8878 45.5655 35.3114 45.5655C34.7232 45.5655 34.1821 45.7008 33.688 45.9713C33.2057 46.2301 32.8175 46.6301 32.5234 47.1712C32.2293 47.7123 32.0823 48.3711 32.0823 49.1475C32.0823 49.9357 32.2234 50.6003 32.5058 51.1414C32.7999 51.6826 33.1881 52.0884 33.6704 52.359C34.1527 52.6178 34.682 52.7472 35.2585 52.7472ZM47.0394 44.1538C48.2158 44.1538 49.1686 44.5126 49.898 45.2302C50.6273 45.936 50.992 46.9595 50.992 48.3005V54H49.4039V48.5299C49.4039 47.5653 49.1628 46.8301 48.6805 46.3242C48.1981 45.8066 47.5394 45.5478 46.7042 45.5478C45.8572 45.5478 45.1808 45.8125 44.6749 46.3419C44.1809 46.8712 43.9338 47.6418 43.9338 48.6534V54H42.3281V44.3303H43.9338V45.7066C44.2514 45.2126 44.6808 44.8302 45.2219 44.5597C45.7748 44.2891 46.3807 44.1538 47.0394 44.1538ZM57.8322 54.1588C56.9264 54.1588 56.103 53.9529 55.3619 53.5412C54.6325 53.1295 54.0561 52.5472 53.6326 51.7943C53.2209 51.0297 53.015 50.1474 53.015 49.1475C53.015 48.1594 53.2268 47.2888 53.6503 46.536C54.0855 45.7713 54.6737 45.189 55.4148 44.7891C56.1559 44.3773 56.9853 44.1715 57.9028 44.1715C58.8204 44.1715 59.6497 44.3773 60.3908 44.7891C61.1319 45.189 61.7142 45.7655 62.1377 46.5183C62.573 47.2712 62.7906 48.1476 62.7906 49.1475C62.7906 50.1474 62.5671 51.0297 62.1201 51.7943C61.6848 52.5472 61.0908 53.1295 60.3379 53.5412C59.585 53.9529 58.7498 54.1588 57.8322 54.1588ZM57.8322 52.7472C58.4087 52.7472 58.9498 52.6119 59.4556 52.3413C59.9615 52.0708 60.3673 51.6649 60.6732 51.1238C60.9908 50.5827 61.1496 49.9239 61.1496 49.1475C61.1496 48.3711 60.9967 47.7123 60.6908 47.1712C60.385 46.6301 59.985 46.2301 59.4909 45.9713C58.9968 45.7008 58.4616 45.5655 57.8852 45.5655C57.297 45.5655 56.7559 45.7008 56.2618 45.9713C55.7795 46.2301 55.3913 46.6301 55.0972 47.1712C54.8031 47.7123 54.6561 48.3711 54.6561 49.1475C54.6561 49.9357 54.7972 50.6003 55.0796 51.1414C55.3736 51.6826 55.7618 52.0884 56.2442 52.359C56.7265 52.6178 57.2558 52.7472 57.8322 52.7472ZM68.8015 54.1235C67.9898 54.1235 67.2605 53.9824 66.6135 53.7C65.9782 53.4059 65.4783 53.006 65.1136 52.5001C64.7489 51.9825 64.5607 51.3885 64.549 50.7179H66.2606C66.3194 51.2944 66.5547 51.7826 66.9664 52.1825C67.3899 52.5707 68.0016 52.7648 68.8015 52.7648C69.5662 52.7648 70.1661 52.5766 70.6014 52.2002C71.0484 51.812 71.2719 51.3179 71.2719 50.7179C71.2719 50.2474 71.1425 49.8651 70.8837 49.571C70.6249 49.2769 70.3014 49.0534 69.9132 48.9005C69.525 48.7475 69.0015 48.5828 68.3427 48.4064C67.531 48.1946 66.8782 47.9829 66.3841 47.7712C65.9018 47.5594 65.4842 47.23 65.1313 46.783C64.7901 46.3242 64.6195 45.7125 64.6195 44.9479C64.6195 44.2774 64.7901 43.6833 65.1313 43.1657C65.4724 42.6481 65.9488 42.2481 66.5605 41.9658C67.184 41.6835 67.8957 41.5423 68.6956 41.5423C69.8485 41.5423 70.7896 41.8305 71.5189 42.4069C72.26 42.9834 72.6776 43.748 72.7717 44.7008H71.0072C70.9484 44.2303 70.7013 43.8186 70.2661 43.4657C69.8308 43.101 69.2544 42.9187 68.5368 42.9187C67.8663 42.9187 67.3193 43.0951 66.8958 43.448C66.4723 43.7892 66.2606 44.2715 66.2606 44.8949C66.2606 45.342 66.3841 45.7066 66.6311 45.989C66.8899 46.2713 67.2017 46.4889 67.5663 46.6418C67.9428 46.783 68.4663 46.9477 69.1368 47.1359C69.9485 47.3594 70.6014 47.5829 71.0954 47.8064C71.5895 48.0182 72.013 48.3535 72.3659 48.8122C72.7188 49.2593 72.8953 49.871 72.8953 50.6474C72.8953 51.2473 72.7365 51.812 72.4188 52.3413C72.1012 52.8707 71.6307 53.3001 71.0072 53.6294C70.3837 53.9588 69.6485 54.1235 68.8015 54.1235ZM80.6577 54L76.864 49.7298V54H75.2582V40.9424H76.864V48.6181L80.5872 44.3303H82.8281L78.2756 49.1475L82.8458 54H80.6577ZM83.7395 49.1299C83.7395 48.1417 83.9395 47.2771 84.3394 46.536C84.7394 45.7831 85.2864 45.2008 85.9805 44.7891C86.6863 44.3773 87.4686 44.1715 88.3273 44.1715C89.1743 44.1715 89.9095 44.3538 90.533 44.7185C91.1565 45.0832 91.6211 45.5419 91.927 46.0948V44.3303H93.5504V54H91.927V52.2002C91.6094 52.7648 91.1329 53.2354 90.4977 53.6118C89.8742 53.9765 89.1449 54.1588 88.3097 54.1588C87.4509 54.1588 86.6745 53.9471 85.9805 53.5236C85.2864 53.1001 84.7394 52.506 84.3394 51.7414C83.9395 50.9767 83.7395 50.1062 83.7395 49.1299ZM91.927 49.1475C91.927 48.4182 91.7799 47.7829 91.4859 47.2418C91.1918 46.7007 90.7918 46.2889 90.286 46.0066C89.7919 45.7125 89.2449 45.5655 88.6449 45.5655C88.045 45.5655 87.498 45.7066 87.0039 45.989C86.5098 46.2713 86.1158 46.683 85.8217 47.2241C85.5276 47.7653 85.3805 48.4005 85.3805 49.1299C85.3805 49.871 85.5276 50.518 85.8217 51.0709C86.1158 51.612 86.5098 52.0296 87.0039 52.3237C87.498 52.606 88.045 52.7472 88.6449 52.7472C89.2449 52.7472 89.7919 52.606 90.286 52.3237C90.7918 52.0296 91.1918 51.612 91.4859 51.0709C91.7799 50.518 91.927 49.8768 91.927 49.1475Z" fill="#1C1C1E"/>
</svg>
